<svg width="60" height="59" viewBox="0 0 60 59" fill="none" xmlns="http://www.w3.org/2000/svg">
<path fill-rule="evenodd" clip-rule="evenodd" d="M30 0C13.4 0 0 13.4 0 30C0 43.2 8.6 54.4 20.6 58.4C22.2 58.6 22.6 57.8 22.6 57V51.8C14.2 53.6 12.4 47.8 12.4 47.8C11 44.4 9 43.4 9 43.4C6.2 41.6 9.2 41.6 9.2 41.6C12.2 41.8 13.8 44.6 13.8 44.6C16.4 49.2 20.8 47.8 22.6 47C22.8 45 23.6 43.8 24.6 43C18 42.2 11 39.6 11 28.2C11 25 12.2 22.2 14 20.2C13.6 19.4 12.6 16.4 14.2 12.2C14.2 12.2 16.8 11.4 22.4 15.2C24.8 14.6 27.4 14.2 30 14.2C32.6 14.2 35.2 14.6 37.6 15.2C43.4 11.4 45.8 12.2 45.8 12.2C47.4 16.4 46.4 19.4 46 20.2C48 22.2 49 25 49 28.2C49 39.8 42 42.2 35.4 43C36.4 44 37.4 45.8 37.4 48.6V56.8C37.4 57.6 38 58.6 39.4 58.2C51.4 54.2 59.8 43 59.8 29.8C60 13.4 46.6 0 30 0Z" fill="white"/>
</svg>
